<svg id="Layer_1" data-name="Layer 1" xmlns="http://www.w3.org/2000/svg" viewBox="0 0 18 18"><defs><style>.cls-1{fill:none;}.cls-2{fill:#fff;}</style></defs><path class="cls-1" d="M0,0H18V18H0Z"/><path class="cls-2" d="M12.75,2.25h-9a1.5,1.5,0,0,0-1.5,1.5v10.5a1.5,1.5,0,0,0,1.5,1.5h10.5a1.5,1.5,0,0,0,1.5-1.5v-9Zm1.5,12H3.75V3.75h8.38l2.12,2.12ZM9,9a2.25,2.25,0,1,0,2.25,2.25A2.25,2.25,0,0,0,9,9ZM4.5,4.5h6.75v3H4.5Z"/><path class="cls-1" d="M11.12,11.17h3.11v3.11H11.12Z"/><path class="cls-2" d="M12.68,11.43A1.3,1.3,0,1,0,14,12.72,1.3,1.3,0,0,0,12.68,11.43Zm0,2.33a1,1,0,1,1,0-2.07,1,1,0,0,1,0,2.07Zm.06-1.68h-.19v.77l.68.41.09-.16-.58-.35Z"/></svg>